<?xml version="1.0" encoding="utf-8"?>
<!-- Generator: Adobe Illustrator 24.3.0, SVG Export Plug-In . SVG Version: 6.00 Build 0)  -->
<svg version="1.1" id="Calque_1" xmlns="http://www.w3.org/2000/svg" xmlns:xlink="http://www.w3.org/1999/xlink" x="0px" y="0px"
	 viewBox="0 0 550 550" style="enable-background:new 0 0 550 550;" xml:space="preserve">
<style type="text/css">
	.st0{display:none;}
	.st1{fill:#FFFFF0;}
</style>
<g id="Calque_2_1_" class="st0">
	
		<image style="display:inline;overflow:visible;enable-background:new    ;" width="120" height="122" xlink:href="D125DBEB.png"  transform="matrix(8.8525 0 0 8.8525 -256.1476 -265)">
	</image>
</g>
<g id="Calque_1_1_">
	<g>
		<path class="st1" d="M49.4,254.3h78.1c10.1,0,18.2-8.2,18.2-18.2V124.4c0-10.1-8.2-18.2-18.2-18.2H49.4c-10,0-18.2,8.2-18.2,18.2
			v111.7C31.1,246.1,39.3,254.3,49.4,254.3z M47.2,124.4c0-1.2,1-2.2,2.2-2.2h78.1c1.2,0,2.2,1,2.2,2.2v111.7c0,1.2-1,2.2-2.2,2.2
			H49.4c-1.2,0-2.2-1-2.2-2.2V124.4z"/>
		<path class="st1" d="M80.4,155.8h33.2c4.4,0,8-3.6,8-8s-3.6-8-8-8H80.4c-4.4,0-8,3.6-8,8S75.9,155.8,80.4,155.8z"/>
		<path class="st1" d="M63.4,188.3h49.3c4.4,0,8-3.6,8-8s-3.6-8-8-8H63.4c-4.4,0-8,3.6-8,8S59,188.3,63.4,188.3z"/>
		<path class="st1" d="M63.4,221.3h49.3c4.4,0,8-3.6,8-8s-3.6-8-8-8H63.4c-4.4,0-8,3.6-8,8S59,221.3,63.4,221.3z"/>
		<path class="st1" d="M236.5,175.8c42.2,0,76.5-34.3,76.5-76.5s-34.3-76.5-76.5-76.5S160,57.1,160,99.3S194.3,175.8,236.5,175.8z
			 M236.5,38.8c33.3,0,60.5,27.1,60.5,60.5s-27.1,60.5-60.5,60.5S176,132.6,176,99.3S203.2,38.8,236.5,38.8z"/>
		<path class="st1" d="M214,133.1c1.3,0.8,2.7,1.1,4.1,1.1c1.3,0,2.6-0.3,3.8-0.9l50.6-26.9c2.6-1.4,4.3-4.2,4.3-7.2
			s-1.7-5.7-4.4-7.1l-50.6-25.7c-2.5-1.3-5.4-1.2-7.8,0.3s-3.8,4.1-3.8,6.8v52.6C210.1,129,211.6,131.6,214,133.1z M226.2,86.7
			l25.1,12.8l-25.1,13.4V86.7z"/>
		<path class="st1" d="M381.6,181.5h128.8c4.4,0,8-3.6,8-8V40.6c0-4.4-3.6-8-8-8H381.6c-4.4,0-8,3.6-8,8v40c0,4.4,3.6,8,8,8
			s8-3.6,8-8v-32h112.8v116.9H389.7V107c0-4.4-3.6-8-8-8s-8,3.6-8,8v66.5C373.6,177.9,377.2,181.5,381.6,181.5z"/>
		<path class="st1" d="M450.4,83.7h27.1c4.4,0,8-3.6,8-8s-3.6-8-8-8h-27.1c-12.4,0-22.5,10.1-22.5,22.5V99h-14.4c-4.4,0-8,3.6-8,8
			s3.6,8,8,8h14.4v30.7c0,4.4,3.6,8,8,8s8-3.6,8-8V115h16c4.4,0,8-3.6,8-8s-3.6-8-8-8h-16v-8.9C443.9,86.6,446.8,83.7,450.4,83.7z"
			/>
		<path class="st1" d="M330.1,238.5c1.6,2,3.9,3,6.3,3c1.8,0,3.5-0.6,5-1.8l39.1-31.4c3.5-2.8,4-7.8,1.2-11.3s-7.8-4-11.3-1.2
			l-39.1,31.4C327.9,229.9,327.4,235,330.1,238.5z"/>
		<path class="st1" d="M307.5,208.4c1.5,1.1,3.1,1.6,4.8,1.6c2.4,0,4.8-1.1,6.4-3.2l32.2-42.8c2.7-3.5,2-8.6-1.6-11.2
			c-3.5-2.7-8.6-1.9-11.2,1.6l-32.2,42.8C303.3,200.8,304,205.8,307.5,208.4z"/>
		<path class="st1" d="M421.3,249.5c-1-4.3-5.4-7-9.7-5.9L355.7,257c-4.3,1-7,5.4-5.9,9.7c0.9,3.7,4.2,6.1,7.8,6.1
			c0.6,0,1.2-0.1,1.9-0.2l55.9-13.5C419.6,258.1,422.3,253.8,421.3,249.5z"/>
		<path class="st1" d="M305.1,242.4c-2.1-3.9-7-5.3-10.9-3.2s-5.3,7-3.2,10.9l38.4,70.4l-138.6,53c-0.5,0.2-1,0.5-1.5,0.8
			l-24.6,15.9c-3.9,2.5-9,1.5-11.8-2.2l-26.2-36c-1.4-1.9-1.9-4.3-1.5-6.6s1.7-4.4,3.7-5.7l30.1-20.4l23,35.5
			c1.5,2.4,4.1,3.7,6.7,3.7c1.5,0,3-0.4,4.4-1.3c3.7-2.4,4.8-7.4,2.4-11.1l-23.2-35.8l3.8-2.6c0.3-0.2,0.5-0.4,0.7-0.6l100.6-86.5
			l5.2,8.4c2.4,3.8,7.3,4.9,11.1,2.6c3.8-2.4,4.9-7.3,2.5-11.1L286,204.2c-1.2-2-3.3-3.3-5.6-3.7c-2.3-0.4-4.7,0.3-6.4,1.9
			l-107.3,92.3L120,326.4c-5.6,3.8-9.3,9.5-10.5,16.2c-0.8,4.5-0.3,9,1.3,13.2C97.3,357.6,87,369.2,87,383.1
			c0,15.2,12.4,27.6,27.6,27.6c10.5,0,19.7-5.9,24.4-14.6l1,1.4c4.8,6.6,12.4,10.2,20,10.2c4.6,0,9.3-1.3,13.4-4l5.2-3.4l22.6,31.5
			c3.1,4.2,7.6,7,12.8,7.8c1,0.1,2,0.2,2.9,0.2c4.1,0,8.2-1.3,11.6-3.9l6.8-5.1c8.4-6.3,10.1-18.3,3.9-26.8L221,379.1l122.7-46.9
			c2.2-0.8,3.9-2.5,4.7-4.7c0.8-2.2,0.6-4.6-0.5-6.6L305.1,242.4z M114.6,394.6c-6.4,0-11.5-5.2-11.5-11.5s5.2-11.5,11.5-11.5
			s11.5,5.2,11.5,11.5S121,394.6,114.6,394.6z M226.3,413.5c1,1.4,0.7,3.4-0.7,4.5l-6.8,5.1c-0.9,0.7-1.9,0.7-2.4,0.6
			s-1.4-0.4-2.1-1.3l-22.2-30.9l5.2-3.4l8.1-3.1L226.3,413.5z"/>
		<path class="st1" d="M511.7,371.5c4.4,0,8-3.6,8-8V304c0-10.3-8.4-18.6-18.6-18.6H392.2c-10.3,0-18.6,8.4-18.6,18.6v108.4
			c0,10.3,8.4,18.6,18.6,18.6h108.9c10.3,0,18.6-8.4,18.6-18.6V391c0-4.4-3.6-8-8-8c-4.4,0-8,3.6-8,8v21.4c0,1.4-1.1,2.6-2.6,2.6
			H392.2c-1.4,0-2.6-1.1-2.6-2.6V304c0-1.4,1.1-2.6,2.6-2.6h108.9c1.4,0,2.6,1.1,2.6,2.6v59.5C503.7,367.9,507.3,371.5,511.7,371.5z
			"/>
		<path class="st1" d="M414,358.2c0,18,14.7,32.7,32.7,32.7s32.7-14.7,32.7-32.7s-14.7-32.7-32.7-32.7S414,340.2,414,358.2z
			 M463.3,358.2c0,9.2-7.5,16.6-16.6,16.6s-16.6-7.5-16.6-16.6c0-9.2,7.5-16.6,16.6-16.6S463.3,349,463.3,358.2z"/>
		<path class="st1" d="M316.2,455.8h-15.8v-84.9c0-4.4-3.6-8-8-8s-8,3.6-8,8v84.9H71.5v-163H148c4.4,0,8-3.6,8-8s-3.6-8-8-8H63.4
			c-4.4,0-8,3.6-8,8v171H39.2c-4.4,0-8,3.6-8,8v17.9c0,22.6,18.4,41.1,41,41.1h211c22.6,0,41-18.4,41-41v-17.9
			C324.2,459.4,320.6,455.8,316.2,455.8z M308.2,481.7c0,13.8-11.2,25-25,25h-15.5v-12c0-4.4-3.6-8-8-8s-8,3.6-8,8v12H104.4v-12
			c0-4.4-3.6-8-8-8s-8,3.6-8,8v12H72.2c-13.8,0-25-11.2-25-25v-9.9h16.2h228.9h15.8L308.2,481.7L308.2,481.7z"/>
	</g>
</g>
</svg>
