<?xml version="1.0" encoding="utf-8"?>
<!-- Generator: Adobe Illustrator 24.3.0, SVG Export Plug-In . SVG Version: 6.00 Build 0)  -->
<svg version="1.1" id="Calque_1" xmlns="http://www.w3.org/2000/svg" xmlns:xlink="http://www.w3.org/1999/xlink" x="0px" y="0px"
	 viewBox="0 0 550 550" style="enable-background:new 0 0 550 550;" xml:space="preserve">
<style type="text/css">
	.st0{display:none;}
	.st1{fill:#FFFFF0;}
</style>
<g id="Calque_2_1_" class="st0">
	
		<image style="display:inline;overflow:visible;enable-background:new    ;" width="120" height="120" xlink:href="804130C7.png"  transform="matrix(9 0 0 9 -265 -265)">
	</image>
</g>
<g id="Calque_1_1_">
	<g>
		<path class="st1" d="M286,350c0.7,0.2,1.3,0.3,2,0.3c3.3,0,6.4-2.2,7.3-5.6c5.8-21.1,23.8-35.5,46-36.7c4.2-0.2,7.4-3.8,7.2-8
			s-3.8-7.4-8-7.2c-14.3,0.7-27.5,5.8-38.3,14.5c-10.5,8.6-18,20.1-21.6,33.3C279.6,344.7,282,348.9,286,350z"/>
		<path class="st1" d="M320.9,401.3c-4.3,0.9-8.4,2.4-12.3,4.4c-7.4-6.4-16.7-10.5-26.9-11.7c-27.4-3.1-52.3,16.7-55.4,44.1
			c-0.9,8,0.1,16.2,3,23.6c1.2,3,4,4.9,7.1,4.9c0.9,0,1.8-0.2,2.7-0.5c3.9-1.5,5.9-5.9,4.4-9.8c-2-5.3-2.7-10.8-2.1-16.5
			c2.2-19.1,19.5-32.9,38.6-30.7c14,1.6,25.6,11.3,29.6,24.8c1.2,4,5.4,6.3,9.4,5.1c4-1.2,6.3-5.4,5.1-9.4c-1.3-4.3-3-8.3-5.3-11.9
			c1.6-0.6,3.3-1.2,5.1-1.5c12.3-2.5,25.2,3.1,32.9,14.2c1.5,2.1,3.8,3.3,6.2,3.3c1.5,0,3-0.4,4.3-1.4c3.5-2.4,4.3-7.1,1.9-10.6
			C358.1,405.6,339.1,397.6,320.9,401.3z"/>
		<path class="st1" d="M179.7,347.8c-20.8,9.2-35,29-37.2,51.6c-0.4,4.2,2.7,7.9,6.8,8.3c0.2,0,0.5,0,0.7,0c3.9,0,7.2-3,7.6-6.9
			c1.6-17.1,12.4-32.2,28.2-39.2c3.8-1.7,5.6-6.2,3.9-10C188,347.9,183.5,346.1,179.7,347.8z"/>
		<path class="st1" d="M455.4,392.6L455.4,392.6c1.2-6.8,1.8-13.6,1.8-20.5c0-8.2-0.9-16.3-2.6-24.2l39.2-90.6l28-48.3
			c0.9-1.6,1.2-3.4,0.9-5.2l-14.3-76.5c0-0.1,0-0.1,0-0.2s0-0.1,0-0.2c0-0.2-0.1-0.4-0.2-0.6v-0.1c-0.1-0.2-0.1-0.4-0.2-0.6
			c0-0.1,0-0.1-0.1-0.1c-0.1-0.2-0.2-0.4-0.3-0.6v-0.1c-0.1-0.2-0.2-0.3-0.3-0.5c0-0.1-0.1-0.1-0.1-0.2c-0.1-0.2-0.2-0.3-0.4-0.5
			l-0.1-0.1c-0.1-0.1-0.2-0.2-0.3-0.3c0-0.1-0.1-0.1-0.2-0.2s-0.3-0.3-0.4-0.4c0,0-0.1-0.1-0.2-0.1c-0.1-0.1-0.3-0.2-0.4-0.3
			c0,0-0.1-0.1-0.2-0.1c-0.2-0.1-0.4-0.2-0.5-0.3l-0.1-0.1c-0.2-0.1-0.4-0.2-0.6-0.2c0,0,0,0-0.1,0l0,0l0,0
			c-0.2-0.1-0.4-0.1-0.6-0.2c-0.1,0-0.1,0-0.2-0.1c-0.2-0.1-0.4-0.1-0.6-0.1h-0.1c-0.2,0-0.4-0.1-0.5-0.1s-0.1,0-0.2,0
			c-0.2,0-0.4,0-0.6,0c-0.1,0-0.1,0-0.2,0c-0.2,0-0.3,0-0.5,0c-0.1,0-0.1,0-0.2,0c-0.2,0-0.4,0.1-0.6,0.1h-0.1
			c-0.2,0-0.4,0.1-0.5,0.2h-0.1c-0.2,0.1-0.4,0.2-0.6,0.2c0,0,0,0-0.1,0c-0.2,0.1-0.4,0.2-0.5,0.3c0,0-0.1,0-0.1,0.1
			c-0.2,0.1-0.4,0.2-0.5,0.3l-0.1,0.1c-0.1,0.1-0.2,0.1-0.2,0.2l-61,47.4c-1.4,1.1-2.3,2.6-2.7,4.3l-10.8,46.7l-24.9,52
			c-8.2-4.2-16.8-7.4-25.8-9.5l5.6-84.9c26.9-42.9,16.7-80.1,3.2-103.8c-14.5-25.5-35.2-40.8-36.1-41.4c-2.1-1.5-4.9-1.9-7.3-0.9
			c-2.4,1-4.2,3.2-4.6,5.7c-0.1,0.4-7.8,43.2-33.7,71.5c-16.9,18.4-15.2,37.2-10.8,49.7c3.2,8.9,8.1,15.9,11,19.4l-5.9,95.4
			c-6.4,3.5-12.4,7.5-18,12.1l-40-159.5v-0.1c-0.1-0.2-0.1-0.4-0.2-0.6v-0.1c-0.1-0.2-0.2-0.4-0.3-0.6c0-0.1-0.1-0.2-0.1-0.2
			c0-0.1-0.1-0.2-0.1-0.2L209.8,81c-0.1-0.2-0.2-0.4-0.3-0.6l-25.6-46.5c-2.7-4.9-8.3-7.4-13.8-6.2s-9.4,5.9-9.8,11.5l-6.7,107.3
			c0,0.1,0,0.1,0,0.2c0,0.2,0,0.3,0,0.5c0,0.1,0,0.2,0,0.3c0,0.2,0,0.3,0,0.5c0,0.1,0,0.1,0,0.2c0,0.2,0.1,0.4,0.1,0.7l0,0
			l39.8,161.9c-7,0-13.9,0.8-20.6,2.4l-49.5-113.9c-0.8-1.9-2.3-3.3-4.2-4.1s-4-0.7-5.8,0.1L30.6,232c-3.8,1.7-5.5,6.1-3.9,9.9
			l62.7,150.9c-35.3,2.1-63.3,31.5-63.3,67.3c0,37.2,30.2,67.4,67.4,67.4c2,0,3.9-0.1,5.9-0.3h350.3c2,0.2,4,0.3,5.9,0.3
			c37.2,0,67.4-30.2,67.4-67.4S492.6,392.6,455.4,392.6z M446.7,180.3l37.2-28.9l-15.5,39.9c-1.5,3.9,0.4,8.3,4.3,9.8
			c0.9,0.4,1.8,0.5,2.7,0.5c3,0,5.9-1.8,7.1-4.9l15.7-40.6l8.9,47.5L482,247c-8.6,1.4-33.7,3.1-45.3-24.2L446.7,180.3z M429.2,240.4
			c9.8,14.1,23,19.5,33.4,21.5c4,0.8,7.9,1,11.3,1c0.3,0,0.6,0,0.9,0l-27.4,63.3c-5.5-12.1-13.2-23.3-22.9-33
			c-4.6-4.6-9.5-8.7-14.7-12.4L429.2,240.4z M313.3,183.6H361l-1.9,28.1l-47.6-0.9L313.3,183.6z M309.3,119.8
			c20-21.8,30.1-50.3,34.6-66.5c6.7,6.4,15.9,16.4,23,29.2c15.9,28.4,15.3,57.3-1.9,85.9h-55.3c-2.2-2.8-5.7-7.9-8-14.3
			C297.2,141.7,299.8,130.1,309.3,119.8z M310.7,225.9l47.5,0.9l-2.3,34.1c-3.4-0.3-6.8-0.5-10.2-0.5c-13,0-25.7,2.3-37.5,6.5
			L310.7,225.9z M245,324c-9.3-38.5-25-103.5-25.6-106.2c-0.9-4.1-5-6.7-9.1-5.8s-6.7,5-5.8,9.1c0.6,2.9,15.8,65.7,23.1,96.1
			c-5.9-2.4-12.1-4.1-18.5-5.2l-37.8-153.9c3.4,0.6,7.4,1.1,11.7,1.1c2.7,0,5.6-0.2,8.7-0.6l7.5,32.7c0.8,3.5,3.9,5.9,7.4,5.9
			c0.6,0,1.1-0.1,1.7-0.2c4.1-0.9,6.6-5,5.7-9.1l-7.6-33.4c5.5-2.4,11.1-5.8,16.7-10.6l38.8,154.5C255.2,306,249.5,314.6,245,324z
			 M168.8,141.9l2.4-38c12.1-0.7,22.3-5.2,28.8-8.8l18,32.6C199.3,148.1,178,144.7,168.8,141.9z M174.6,49.1l18.1,32.7
			c-4.7,2.6-12,5.9-20.5,6.8L174.6,49.1z M112.3,212.2l6.9,15.9l-34.8,14.8c-3.9,1.6-5.7,6.1-4,10c1.2,2.9,4,4.6,7,4.6
			c1,0,2-0.2,3-0.6l34.9-14.9l7,16.1l-20.2,10.5c-3.7,1.9-5.2,6.5-3.2,10.2c1.4,2.6,4,4.1,6.7,4.1c1.2,0,2.4-0.3,3.5-0.9l19.2-10
			l6.9,15.9l-40.1,18.2c-3.8,1.7-5.5,6.2-3.8,10.1c1.3,2.8,4,4.5,6.9,4.5c1.1,0,2.1-0.2,3.1-0.7l39.9-18.1l6.9,15.8
			c-10.9,4.5-20.8,11.2-29.4,19.8c-13.6,13.6-22.5,30.8-25.6,49.4L43.2,242.8L112.3,212.2z M455.4,512.2c-1.6,0-3.2-0.1-4.9-0.2
			c-0.2,0-0.5,0-0.7,0h-351c-0.2,0-0.5,0-0.7,0c-1.6,0.1-3.3,0.2-4.9,0.2C64.4,512.2,41,488.8,41,460s23.4-52.2,52.2-52.2
			c4.8,0,9.6,0.7,14.2,2c2.3,0.6,4.8,0.2,6.7-1.2s3-3.7,3-6c0-42.2,34.4-76.6,76.7-76.6c17.8,0,35.1,6.2,48.8,17.6
			c1.5,1.3,3.4,2,5.5,1.9c3.1-0.2,5.7-2.2,6.7-5.1c4.6-13.2,12-24.9,21.2-34.6l0,0c17.8-18.6,42.8-29.8,69.7-29.8
			c53.1,0,96.4,43.2,96.4,96.4c0,9.1-1.3,18.1-3.8,26.8c-0.7,2.5-0.1,5.2,1.6,7.2s4.4,2.9,6.9,2.5c2.9-0.5,5.8-0.7,8.6-0.7
			c28.8,0,52.2,23.4,52.2,52.2C507.6,488.8,484.2,512.2,455.4,512.2z"/>
		<path class="st1" d="M345.4,160.7c1.7,0,3.4-0.6,4.8-1.7c20.4-16.5,15.2-51.1,15-52.5c-0.6-4.1-4.5-7-8.7-6.3s-7,4.5-6.4,8.7
			c1.1,7.6,1.7,29.3-9.5,38.4c-3.3,2.6-3.8,7.4-1.1,10.7C341,159.7,343.2,160.7,345.4,160.7z"/>
	</g>
</g>
</svg>
